# xmcd CD database file generated by Grip 3.3.0
# 
# Track frame offsets:
#       182
#       24065
#       59817
#       88392
#       116687
#       148300
#       162192
#       176872
#       196495
#       226510
#       256125
#       285512
#       302947
# 
# Disc length: 4323 seconds
# 
# Revision: 4
# Processed by: cddbd v1.5.1PL2 Copyright (c) Steve Scherf et al.
# Submitted via: Grip 3.3.0
# 
DISCID=b910e10d
DTITLE=Various Artist - Alexis Corner Memorial Concert Volume 1
DYEAR=1995
DGENRE=Blues
TTITLE0=Jack Bruce - Neighbour Neighbour
TTITLE1=Jack Bruce - Born Under A Bad Sign
TTITLE2=Jack Bruce - White Room
TTITLE3=Jack Bruce - Sittin' On Top Of The World
TTITLE4=Jack Bruce - Sunshine Of Your Love
TTITLE5=Jack Bruce, Paul Jones - Sonny Boy Williamson
TTITLE6=Paul Jones - Room And Board
TTITLE7=Paul Jones - Not Me
TTITLE8=Paul Jones - Blue Collar
TTITLE9=Paul Jones - Everyday I Have The Blues
TTITLE10=Norman Beaker Band - Cross Me Off Your List
TTITLE11=Brian Knight, Tony Vines - Honey Bee
TTITLE12=Tony McPhee - Groundhog Blues
EXTD=Recorded at Buxton Opera House 21st May 1995 YEAR: 1995 ID3G: 0
EXTT0=
EXTT1=
EXTT2=
EXTT3=
EXTT4=
EXTT5=
EXTT6=
EXTT7=
EXTT8=
EXTT9=
EXTT10=
EXTT11=
EXTT12=
PLAYORDER=
